<?xml version="1.0" encoding="utf-8"?>
<!-- Generator: Adobe Illustrator 27.0.0, SVG Export Plug-In . SVG Version: 6.00 Build 0)  -->
<svg version="1.1" id="Layer_1" xmlns="http://www.w3.org/2000/svg" xmlns:xlink="http://www.w3.org/1999/xlink" x="0px" y="0px"
	 viewBox="0 0 1920 1080" style="enable-background:new 0 0 1920 1080;" xml:space="preserve">
<style type="text/css">
	.st0{fill:#FEFEFE;}
	.st1{fill:#FEEB00;}
	.st2{fill:#FEE803;}
	.st3{fill:#FCDD0C;}
	.st4{fill:#FCDE0B;}
	.st5{fill:#FBCE19;}
	.st6{fill:#FBD117;}
	.st7{fill:#F9C224;}
	.st8{fill:#F9C225;}
	.st9{fill:#FCDC0D;}
</style>
<g>
	<path class="st0" d="M327,864c0-252.67,0-505.33,0-758c303.67,0,607.33,0,911,0c0,252.67,0,505.33,0,758
		C934.33,864,630.67,864,327,864z M821.15,482.55c0-3.27,0-6.55,0-9.82c0-3.05,0-6.09,0-9.14c0.06-12.68,0.15-25.35,0.16-38.03
		c0-10.93-0.1-21.86-0.16-32.79c0.05-1.28,0.15-2.56,0.15-3.84c0.01-17.06,0.01-34.12,0.02-51.18c0-4.04-0.04-8.02,2.17-11.75
		c1.99-3.36,3.49-7.02,5.21-10.54c1.02-1.08,2.09-2.13,3.05-3.26c6.78-7.97,15.54-12.98,25.5-15.28c6.24-1.44,12.89-1.52,19.35-1.46
		c4.89,0.04,9.9,0.79,14.62,2.08c9.47,2.58,17.7,7.7,23.96,15.2c4.25,5.09,8.07,10.78,8.66,17.83c0.44,5.3,0.83,10.61,1.24,15.92
		c-0.1,0.92-0.29,1.84-0.3,2.75c-0.01,26.91-0.01,53.82,0.01,80.73c0,0.92,0.18,1.84,0.28,2.76c-0.11,0.92-0.31,1.83-0.31,2.75
		c-0.01,23.88-0.01,47.75,0.01,71.63c0,0.92,0.19,1.84,0.29,2.75c-0.11,0.8-0.31,1.6-0.31,2.4c-0.01,18.2-0.01,36.4,0.01,54.59
		c0,0.79,0.16,1.58,0.25,2.39c21.33,0,42.48,0,63.72,0c0-13.18,0-26.1,0-39.03c0.06-17.1,0.14-34.21,0.16-51.31
		c0.01-8.61-0.1-17.21-0.16-25.82c0.06-23.28,0.12-46.56,0.16-69.84c0.01-5.7-0.1-11.4-0.16-17.1c0.05-16.93,0.27-33.87,0.03-50.8
		c-0.06-4.11-1.04-8.46-2.67-12.23c-3.01-6.98-6.45-13.83-10.38-20.32c-3.02-4.99-6.72-9.68-10.74-13.91
		c-8.05-8.47-17.43-15.34-27.7-20.97c-10.44-5.71-21.48-9.83-33.13-12.13c-6.65-1.31-13.45-1.91-20.17-2.9
		c-11.62-1.71-23.16-0.6-34.58,1.4c-7.26,1.27-14.43,3.25-21.48,5.43c-12.06,3.75-23.05,9.69-33.09,17.34
		c-4.1,3.12-8.03,6.46-12.17,9.81c-1.42-1.18-2.6-2.26-3.89-3.21c-6.32-4.65-12.4-9.69-19.06-13.8
		c-10.83-6.67-22.54-11.52-35.14-13.73c-9.16-1.6-18.39-3.24-27.64-3.72c-8.17-0.42-16.47,0.3-24.61,1.29
		c-15.24,1.86-29.76,6.29-43.2,13.89c-5.06,3.19-10.23,6.24-15.17,9.61c-7.36,5.02-13.75,11.18-19.07,18.3
		c-3.63,4.85-6.73,10.12-9.9,15.3c-5.97,9.77-8.21,20.7-9.65,31.85c-0.02,3.51-0.03,7.03-0.05,10.54c0,3.27,0,6.54,0,9.82
		c0,3.04,0,6.08,0,9.12c-0.05,0.81-0.14,1.63-0.14,2.44c-0.01,70.68-0.01,141.37,0,212.05c0,0.89,0.15,1.78,0.22,2.68
		c21.8,0,43.36,0,65.27,0c0-50.23,0-100.26,0-150.99c11.54,6.65,22.55,12.94,33.49,19.32c9.08,5.3,18.05,10.79,27.14,16.07
		c13.59,7.9,27.2,15.79,40.94,23.43c2.03,1.13,2.06,2.3,2.06,4.03c-0.02,28.16-0.01,56.31-0.01,84.47c0,1.23,0,2.46,0,3.63
		c25.92,0,51.33,0,77.04,0c0-8.72,0.02-17.23,0-25.73c-0.04-17.29-0.11-34.57-0.16-51.86C821.15,488.64,821.15,485.6,821.15,482.55z
		"/>
	<path class="st1" d="M821.15,491.68c0.06,17.29,0.12,34.57,0.16,51.86c0.02,8.51,0,17.01,0,25.73c-25.7,0-51.12,0-77.04,0
		c0-1.17,0-2.4,0-3.63c0-28.16,0-56.31,0.01-84.47c0-1.74-0.04-2.91-2.06-4.03c-13.74-7.64-27.34-15.53-40.94-23.43
		c-9.09-5.28-18.06-10.77-27.14-16.07c-10.95-6.39-21.95-12.67-33.49-19.32c0,50.73,0,100.76,0,150.99c-21.91,0-43.46,0-65.27,0
		c-0.08-0.9-0.22-1.79-0.22-2.68c-0.01-70.68-0.01-141.37,0-212.05c0-0.81,0.09-1.63,0.14-2.44c0.57,0.08,1.24,0,1.7,0.26
		c9.93,5.62,19.85,11.23,29.73,16.94c15.72,9.08,31.38,18.26,47.1,27.32c16.23,9.36,32.54,18.59,48.77,27.94
		c17.34,10,34.62,20.09,51.94,30.12c19.64,11.36,39.28,22.73,58.98,33.99C815.87,490.04,818.6,490.7,821.15,491.68z"/>
	<path class="st2" d="M629.14,247.58c13.44-7.6,27.96-12.03,43.2-13.89c8.15-0.99,16.45-1.72,24.61-1.29
		c9.26,0.48,18.48,2.12,27.64,3.72c12.59,2.21,24.31,7.06,35.14,13.73c6.66,4.1,12.74,9.14,19.06,13.8
		c1.29,0.95,2.47,2.03,3.89,3.21c4.14-3.35,8.07-6.68,12.17-9.81c10.04-7.65,21.04-13.6,33.09-17.34
		c7.05-2.19,14.22-4.16,21.48-5.43c11.42-2,22.96-3.11,34.58-1.4c6.72,0.99,13.51,1.59,20.17,2.9c11.65,2.3,22.7,6.41,33.13,12.13
		c10.27,5.62,19.65,12.49,27.7,20.97c4.02,4.23,7.72,8.93,10.74,13.91c3.93,6.49,7.38,13.34,10.38,20.32
		c1.63,3.78,2.61,8.12,2.67,12.23c0.24,16.93,0.02,33.87-0.03,50.8c-1.7-0.31-3.45-0.43-5.08-0.96
		c-17.73-5.87-35.43-11.83-53.17-17.69c-1.73-0.57-3.61-0.68-5.43-1c-0.41-5.31-0.8-10.61-1.24-15.92
		c-0.59-7.04-4.41-12.73-8.66-17.83c-6.26-7.51-14.49-12.62-23.96-15.2c-4.72-1.29-9.73-2.03-14.62-2.08
		c-6.46-0.06-13.11,0.02-19.35,1.46c-9.97,2.3-18.72,7.31-25.5,15.28c-0.96,1.13-2.03,2.18-3.05,3.26c-1.19-0.64-2.31-1.49-3.57-1.9
		c-30.73-10.21-61.49-20.36-92.22-30.56c-32.62-10.83-65.23-21.7-97.82-32.61C633.03,249.69,631.12,248.53,629.14,247.58z"/>
	<path class="st3" d="M629.14,247.58c1.98,0.94,3.89,2.11,5.96,2.8c32.59,10.91,65.2,21.77,97.82,32.61
		c30.73,10.21,61.49,20.35,92.22,30.56c1.26,0.42,2.38,1.26,3.57,1.9c-1.72,3.53-3.22,7.18-5.21,10.54
		c-2.21,3.73-2.16,7.72-2.17,11.75c-0.02,17.06-0.01,34.12-0.02,51.18c0,1.28-0.1,2.56-0.15,3.84c-1.94-0.31-3.95-0.37-5.79-0.98
		c-23.67-7.81-47.31-15.69-70.96-23.55c-0.04-9.69-0.12-19.38-0.1-29.07c0.01-8.03-2.31-15.33-6.67-22.01
		c-5.83-8.92-14.1-14.67-23.9-18.5c-5.82-2.28-11.83-2.92-18.02-3.55c-8.97-0.91-17.31,0.76-25.48,3.8
		c-10.14,3.76-18.33,10.29-24.03,19.47c-3.28,5.28-5.74,11.06-5.63,17.62c0.13,7.94-0.02,15.88-0.06,23.82
		c-4.78-2.79-9.54-5.61-14.33-8.37c-12.08-6.97-24.16-13.94-36.28-20.85c-4.8-2.74-9.69-5.3-14.54-7.95
		c1.44-11.15,3.68-22.09,9.65-31.85c3.17-5.18,6.27-10.45,9.9-15.3c5.32-7.11,11.71-13.27,19.07-18.3
		C618.91,253.82,624.07,250.78,629.14,247.58z"/>
	<path class="st4" d="M925.09,346.48c1.81,0.32,3.7,0.42,5.43,1c17.73,5.86,35.44,11.82,53.17,17.69c1.62,0.54,3.38,0.65,5.08,0.96
		c0.06,5.7,0.17,11.4,0.16,17.1c-0.03,23.28-0.1,46.56-0.16,69.84c-2.32-0.67-4.67-1.28-6.97-2.04
		c-12.18-4.01-24.33-8.1-36.52-12.07c-6.7-2.18-13.45-4.17-20.18-6.25c-0.1-0.92-0.28-1.84-0.28-2.76
		c-0.02-26.91-0.03-53.82-0.01-80.73C924.8,348.32,924.99,347.4,925.09,346.48z"/>
	<path class="st5" d="M925.09,432.72c6.73,2.08,13.49,4.07,20.18,6.25c12.19,3.97,24.34,8.06,36.52,12.07
		c2.3,0.76,4.65,1.36,6.97,2.04c0.06,8.61,0.17,17.21,0.16,25.82c-0.02,17.1-0.1,34.21-0.16,51.31c-1.36-0.27-2.76-0.4-4.06-0.84
		c-11.48-3.8-22.92-7.7-34.4-11.47c-8.38-2.76-16.8-5.37-25.21-8.05c-0.1-0.92-0.29-1.84-0.29-2.75
		c-0.02-23.88-0.03-47.75-0.01-71.63C924.79,434.55,924.99,433.64,925.09,432.72z"/>
	<path class="st6" d="M744.4,368.25c23.65,7.86,47.29,15.75,70.96,23.55c1.84,0.61,3.86,0.67,5.79,0.98
		c0.06,10.93,0.16,21.86,0.16,32.79c0,12.68-0.1,25.35-0.16,38.03c-1.09-0.35-2.29-0.53-3.26-1.09
		c-10.34-5.93-20.63-11.92-30.95-17.89c-9.41-5.44-18.86-10.81-28.24-16.31c-4.87-2.86-9.62-5.92-14.43-8.88
		C744.32,402.37,744.36,385.31,744.4,368.25z"/>
	<path class="st7" d="M925.09,509.86c8.4,2.68,16.83,5.29,25.21,8.05c11.48,3.78,22.93,7.67,34.4,11.47c1.3,0.43,2.7,0.56,4.06,0.84
		c0,12.92,0,25.85,0,39.03c-21.24,0-42.4,0-63.72,0c-0.09-0.81-0.25-1.6-0.25-2.39c-0.02-18.2-0.02-36.4-0.01-54.59
		C924.78,511.46,924.99,510.66,925.09,509.86z"/>
	<path class="st8" d="M744.28,419.43c4.81,2.97,9.56,6.03,14.43,8.88c9.38,5.5,18.83,10.87,28.24,16.31
		c10.32,5.96,20.61,11.96,30.95,17.89c0.98,0.56,2.17,0.74,3.26,1.09c0,3.05,0,6.09,0,9.14c-1.45-0.32-3.1-0.3-4.33-1
		c-14.75-8.43-29.43-16.98-44.14-25.48c-13.4-7.75-26.8-15.49-40.2-23.23c-11.99-6.93-23.97-13.87-35.97-20.79
		c-12.1-6.97-24.22-13.91-36.32-20.87c-12.81-7.37-25.62-14.74-38.43-22.12c-13.11-7.55-26.19-15.14-39.33-22.64
		c-2.28-1.31-4.76-2.28-7.15-3.4c0.02-3.51,0.03-7.03,0.05-10.54c4.85,2.64,9.74,5.21,14.54,7.95c12.12,6.91,24.2,13.88,36.28,20.85
		c4.79,2.76,9.56,5.58,14.33,8.37c5.49,3.22,10.99,6.43,16.48,9.65c11.89,6.97,23.76,13.97,35.68,20.89
		c13.51,7.84,27.04,15.62,40.6,23.36C736.86,415.75,740.6,417.53,744.28,419.43z"/>
	<path class="st5" d="M575.3,333.19c2.39,1.12,4.86,2.09,7.15,3.4c13.13,7.5,26.22,15.09,39.33,22.64
		c12.81,7.38,25.61,14.75,38.43,22.12c12.1,6.96,24.22,13.9,36.32,20.87c12,6.91,23.98,13.86,35.97,20.79
		c13.4,7.74,26.8,15.48,40.2,23.23c14.7,8.51,29.39,17.05,44.14,25.48c1.23,0.7,2.88,0.68,4.33,1c0,3.27,0,6.55,0,9.82
		c-1.54-0.47-3.22-0.68-4.58-1.45c-11.05-6.25-22.05-12.59-33.05-18.93c-25.83-14.89-51.65-29.8-77.48-44.7
		c-13.93-8.03-27.88-16-41.79-24.06c-12.39-7.18-24.71-14.5-37.11-21.66c-14.32-8.28-28.67-16.5-43.06-24.65
		c-2.8-1.59-5.84-2.75-8.76-4.1C575.3,339.74,575.3,336.46,575.3,333.19z"/>
	<path class="st9" d="M575.3,343.01c2.93,1.36,5.97,2.52,8.76,4.1c14.39,8.15,28.74,16.37,43.06,24.65
		c12.4,7.17,24.72,14.48,37.11,21.66c13.91,8.06,27.87,16.03,41.79,24.06c25.83,14.89,51.65,29.8,77.48,44.7
		c11,6.34,22,12.68,33.05,18.93c1.36,0.77,3.05,0.98,4.58,1.45c0,3.04,0,6.08,0,9.13c-2.55-0.98-5.28-1.64-7.62-2.98
		c-19.7-11.26-39.34-22.63-58.98-33.99c-17.32-10.02-34.6-20.12-51.94-30.12c-16.23-9.36-32.54-18.59-48.77-27.94
		c-15.73-9.06-31.38-18.25-47.1-27.32c-9.88-5.7-19.81-11.32-29.73-16.94c-0.47-0.26-1.13-0.18-1.7-0.26
		C575.3,349.08,575.3,346.05,575.3,343.01z"/>
	<path class="st0" d="M744.28,419.43c-3.67-1.9-7.42-3.68-11.01-5.73c-13.56-7.73-27.1-15.52-40.6-23.36
		c-11.92-6.92-23.79-13.92-35.68-20.89c-5.49-3.22-10.98-6.43-16.48-9.65c0.03-7.94,0.18-15.88,0.06-23.82
		c-0.11-6.55,2.35-12.33,5.63-17.62c5.7-9.17,13.89-15.7,24.03-19.47c8.17-3.04,16.51-4.71,25.48-3.8
		c6.19,0.63,12.2,1.27,18.02,3.55c9.8,3.83,18.07,9.58,23.9,18.5c4.36,6.68,6.68,13.98,6.67,22.01c-0.02,9.69,0.06,19.38,0.1,29.07
		C744.36,385.31,744.32,402.37,744.28,419.43z"/>
</g>
</svg>
